<svg width="0" height="0" class="hidden">
<!--Header-->
    <symbol fill="none" xmlns="http://www.w3.org/2000/svg" viewBox="0 0 20 20" id="icon-search">
        <path d="M17.5 17.5L12.5 12.5M14.1667 8.33333C14.1667 11.555 11.555 14.1667 8.33333 14.1667C5.11167 14.1667 2.5 11.555 2.5 8.33333C2.5 5.11167 5.11167 2.5 8.33333 2.5C11.555 2.5 14.1667 5.11167 14.1667 8.33333Z" stroke-width="1.8" stroke-linecap="round" stroke-linejoin="round"></path>
    </symbol>
    <symbol fill="none" xmlns="http://www.w3.org/2000/svg" viewBox="0 0 20 20" id="icon-chat">
        <path d="M17.5 10C17.5 14.1421 14.1421 17.5 10 17.5C9.00238 17.5 8.05025 17.3052 7.17958 16.9516C7.01294 16.8839 6.92962 16.8501 6.86227 16.835C6.79638 16.8202 6.74763 16.8148 6.68011 16.8148C6.61109 16.8148 6.53591 16.8273 6.38554 16.8524L3.42063 17.3466C3.11015 17.3983 2.95491 17.4242 2.84265 17.376C2.7444 17.3339 2.66611 17.2556 2.62397 17.1573C2.57582 17.0451 2.60169 16.8898 2.65344 16.5794L3.14759 13.6145C3.17265 13.4641 3.18518 13.3889 3.18517 13.3199C3.18516 13.2524 3.17976 13.2036 3.165 13.1377C3.1499 13.0704 3.11606 12.9871 3.04839 12.8204C2.69478 11.9497 2.5 10.9976 2.5 10C2.5 5.85786 5.85786 2.5 10 2.5C14.1421 2.5 17.5 5.85786 17.5 10Z" stroke-width="1.8" stroke-linecap="round" stroke-linejoin="round"></path>
    </symbol>
    <symbol fill="none" xmlns="http://www.w3.org/2000/svg" viewBox="0 0 20 20" id="phone">
        <path d="M17.9995 14.0029V16.4163C18.0004 16.6403 17.9545 16.8621 17.8648 17.0674C17.775 17.2727 17.6434 17.4569 17.4783 17.6084C17.3132 17.7599 17.1183 17.8752 16.906 17.947C16.6938 18.0187 16.4689 18.0454 16.2457 18.0252C13.7702 17.7562 11.3923 16.9103 9.30312 15.5555C7.35937 14.3204 5.71141 12.6724 4.47627 10.7286C3.11669 8.62993 2.27059 6.24046 2.00653 3.75383C1.98643 3.53137 2.01286 3.30716 2.08416 3.09547C2.15546 2.88379 2.27005 2.68926 2.42065 2.52429C2.57124 2.35932 2.75454 2.22751 2.95886 2.13726C3.16319 2.04701 3.38407 2.00029 3.60744 2.00008H6.02086C6.41128 1.99624 6.78977 2.13449 7.0858 2.38907C7.38182 2.64365 7.57517 2.99718 7.62981 3.38378C7.73168 4.15613 7.92059 4.91447 8.19295 5.64435C8.30118 5.93229 8.32461 6.24523 8.26045 6.54607C8.19629 6.84692 8.04723 7.12307 7.83093 7.3418L6.80925 8.36348C7.95446 10.3775 9.62206 12.0451 11.6361 13.1903L12.6578 12.1687C12.8765 11.9524 13.1527 11.8033 13.4535 11.7391C13.7544 11.675 14.0673 11.6984 14.3552 11.8066C15.0851 12.079 15.8435 12.2679 16.6158 12.3698C17.0066 12.4249 17.3635 12.6217 17.6186 12.9228C17.8737 13.2239 18.0093 13.6083 17.9995 14.0029Z" stroke="#363636" stroke-width="1.8" stroke-linecap="round" stroke-linejoin="round"></path>
    </symbol>
<!--linksSection-->
    <symbol fill="none" xmlns="http://www.w3.org/2000/svg" viewBox="0 0 184 92" id="linkElipse">
        <path id="Ellipse 13" d="M184 92C184 67.6001 174.307 44.1995 157.054 26.9462C139.8 9.69283 116.4 1.84214e-06 92 0C67.6001 -1.84214e-06 44.1995 9.69283 26.9462 26.9462C9.69283 44.1995 3.68429e-06 67.6001 0 92L184 92Z" fill="#EAECF1"></path>
    </symbol>
<!--    businessSection-->
    <symbol fill="none" xmlns="http://www.w3.org/2000/svg" viewBox="0 0 24 24" id="chevronIcon">
        <path d="M9 18L15 12L9 6" stroke-width="2" stroke-linecap="round" stroke-linejoin="round"></path>
    </symbol>
</svg>


